<?xml version="1.0" encoding="UTF-8"?>
<!DOCTYPE svg PUBLIC "-//W3C//DTD SVG 1.1//EN" "http://www.w3.org/Graphics/SVG/1.1/DTD/svg11.dtd">
<!-- Creator: CorelDRAW 2020 (64-Bit) -->
<svg xmlns="http://www.w3.org/2000/svg" xml:space="preserve" width="100%" height="100%" version="1.1" style="shape-rendering:geometricPrecision; text-rendering:geometricPrecision; image-rendering:optimizeQuality; fill-rule:evenodd; clip-rule:evenodd"
viewBox="0 0 19204.15 17017.54"
 xmlns:xlink="http://www.w3.org/1999/xlink"
 xmlns:xodm="http://www.corel.com/coreldraw/odm/2003">
 <defs>
  <style type="text/css">
   <![CDATA[
    .fil0 {fill:#FEFEFE}
    .fil1 {fill:#FEFEFE;fill-rule:nonzero}
   ]]>
  </style>
 </defs>
 <g id="Capa_x0020_1">
  <metadata id="CorelCorpID_0Corel-Layer"/>
  <path class="fil0" d="M1867.93 17017.54c143.5,-103.83 268.27,-248.16 400.04,-379.49 138.92,-138.46 256.28,-246.59 393.68,-382.45 60.19,-59.51 731.46,-740.21 784.05,-763.4 293.8,-129.56 9622.78,-845.01 9876.14,-994.69 73.76,-43.57 329.98,-279.33 417.53,-357.78 129,-115.6 286.93,-236.09 420.72,-355.81 550.46,-492.56 1142.64,-935.12 1677.47,-1427.64 527.72,-485.98 3232.77,-2694.79 3366.59,-2896.35l-10774.71 -255.3c-461.01,-12.91 -290.07,-10.38 -644.1,286.52 -280.81,235.49 -1299.86,1216.42 -1469.78,1314.22l-3236.17 -10805.37c-109.73,104.04 -366.06,801.08 -423.62,941.71 -842.59,2058.76 -1726.62,4301.82 -2596.01,6327.82 -106.58,248.38 -48.4,308.51 4.1,580.29 177.15,917.19 1713.53,9016.68 1804.07,9167.72z"/>
  <path class="fil0" d="M9386.47 1693.6c-1877.5,468.04 799.75,3757 2824.67,3300.24 1182.09,-266.63 512.27,-1636.76 -168.74,-2281.55 -447.86,-424.05 -1652.79,-1268.76 -2655.93,-1018.69z"/>
  <path class="fil0" d="M14981.13 5299.29l-348.29 -698.41c457.15,11.91 1302.46,217.12 1153.11,-477.37 -158.78,-738.27 -1027.01,-1479.61 -1852.25,-1641.97 -466.56,-91.8 -1009.76,-209.28 -1470.67,-268.35 19.88,174.61 1156.5,2344.58 1386.69,2820.51 105.87,218.9 206.19,163.53 499.3,200.2 180.83,22.63 453.83,69.12 632.11,65.39z"/>
  <g id="_2380835586032">
   <polygon class="fil0" points="4263.64,653.9 4263.64,653.91 4752,2186.77 8047.58,2769.87 7571.69,1284.07 "/>
   <polygon class="fil0" points="6226.87,4234 7751.84,4423.67 7751.77,4423.48 6696.83,1118.23 5135.17,807.41 "/>
  </g>
  <polygon class="fil1" points="19001.1,6378.55 18569.28,7843.85 18892.76,9022.25 18048.05,9005.76 17724.56,7827.37 16330.7,6199.97 17275.79,6276.78 18030.46,7144.76 18244.49,6334.59 "/>
  <path class="fil1" d="M17343.36 9029.16l-963.78 -20.03 -762.81 -1144.45 -267.68 -5.56 345.7 1135.78 -871.03 -18.1 -904.26 -2970.85 1480.02 80.19c325.98,17.66 604.43,92.26 833.77,256.32 229.33,164.06 383.78,328.14 463.73,590.9 52.16,171.44 65,322.22 38.44,452.23 -26.58,130.02 -125.88,243.03 -298.62,339.01l906.52 1304.56zm-2186.78 -1802.52l371.78 7.73c109.06,2.26 189.64,-19.65 241.51,-66.53 51.89,-46.86 63.71,-116.7 35.23,-210.24 -58.06,-190.78 -198.17,-288.11 -421.23,-292.75l-400.82 -8.32 173.53 570.11z"/>
  <path class="fil1" d="M14409.5 8940.08l-963.53 -21.44 -747.97 -1224.69 -267.61 -5.95 330.98 1215.42 -870.8 -19.38 -865.73 -3179.15 1479.64 121.46c325.07,26.68 603.2,108.54 830.45,284.14 227.25,175.6 378.87,325.35 455.39,606.51 49.92,183.45 60.83,344.83 32.57,483.95 -28.25,139.13 -129.02,240.38 -303.01,343.1l889.62 1396.03zm-2163.42 -1928.91l371.67 8.28c109.03,2.42 189.9,-21.05 242.38,-71.21 52.5,-50.15 65.2,-124.89 37.95,-224.97 -55.57,-204.14 -194.46,-288.64 -417.43,-293.6l-400.71 -8.91 166.14 590.41z"/>
  <path class="fil1" d="M10190.37 8940.37c-398.51,-9.2 -762.53,-170.88 -1091.87,-484.21 -329.33,-313.33 -559.04,-727.64 -689.84,-1242.94 -124.93,-492.22 -107.98,-896.72 50.35,-1212.73 158.54,-315.18 451.11,-468.26 877.23,-458.42 394.25,9.11 754.82,168.25 1080.07,476.58 325.25,308.31 551.66,715.17 679.94,1220.58 132.89,523.54 114.12,940.3 -56.29,1250.29 -170.42,309.98 -453.21,460 -849.59,450.85zm-193.14 -747.05c147.23,3.4 234.36,-69.18 260.89,-216.92 26.53,-147.75 -10.18,-419.9 -110.84,-816.47 -145.86,-574.66 -351.76,-864.64 -617.2,-870.78 -286.66,-6.62 -346.57,317.39 -180.19,972.85 155.91,614.24 371.99,924.96 647.34,931.32z"/>
  <polygon class="fil1" points="8045.29,7626.64 7118.37,7503.85 7495.8,8821.77 6649.66,8800.97 5642.65,5284.76 7692.1,5435.14 7932.16,6273.33 6728.85,6143.76 6891.9,6713.09 7818.83,6835.88 "/>
 </g>
</svg>
